<?xml version="1.0" standalone="no"?>
<!DOCTYPE svg PUBLIC "-//W3C//DTD SVG 20010904//EN"
 "http://www.w3.org/TR/2001/REC-SVG-20010904/DTD/svg10.dtd">
<svg version="1.0" xmlns="http://www.w3.org/2000/svg"
 width="900.000000pt" height="951.000000pt" viewBox="0 0 900.000000 951.000000"
 preserveAspectRatio="xMidYMid meet">
<metadata>
Created by potrace 1.10, written by Peter Selinger 2001-2011
</metadata>
<g transform="translate(0.000000,951.000000) scale(0.100000,-0.100000)"
fill="#000000" stroke="none">
<path d="M4124 9352 c-15 -2 -25 -17 -38 -60 -10 -31 -24 -73 -31 -92 -7 -19
-19 -57 -28 -85 -103 -342 -106 -348 -149 -358 -174 -43 -218 -55 -358 -100
-93 -29 -228 -80 -262 -98 -27 -14 -101 -39 -116 -39 -7 0 -41 20 -75 44 -135
96 -164 117 -217 152 -30 21 -81 57 -113 81 -31 24 -64 43 -73 43 -15 0 -61
-30 -224 -148 -47 -34 -131 -94 -187 -134 -205 -147 -408 -299 -415 -312 -4
-8 10 -68 32 -137 22 -68 47 -149 56 -179 9 -30 22 -70 30 -88 8 -18 14 -41
14 -51 0 -10 7 -35 15 -54 23 -56 19 -99 -11 -128 -14 -13 -64 -70 -111 -126
-46 -57 -89 -103 -94 -103 -17 0 -129 102 -129 118 0 8 13 31 29 51 15 20 36
51 46 70 l17 34 -48 47 c-27 25 -85 77 -129 115 -168 145 -166 144 -290 170
-44 9 -108 23 -142 31 -34 8 -70 14 -82 14 -20 0 -111 -101 -111 -124 0 -6 9
-36 21 -66 11 -30 24 -66 29 -80 5 -14 18 -50 30 -80 12 -30 26 -69 31 -86 11
-39 24 -51 164 -170 140 -118 174 -144 195 -144 9 0 39 23 68 50 29 28 56 50
60 50 26 0 142 -106 142 -130 0 -18 -28 -63 -119 -191 l-33 -47 -87 -6 c-47
-3 -177 -9 -288 -12 -115 -4 -212 -12 -225 -18 -12 -6 -25 -25 -29 -41 -4 -17
-12 -43 -17 -60 -6 -16 -25 -77 -43 -135 -46 -152 -119 -379 -134 -420 -22
-60 -66 -200 -81 -258 -13 -48 -13 -57 0 -71 14 -16 63 -52 263 -194 225 -161
223 -159 223 -217 0 -51 -17 -239 -26 -277 -4 -22 -9 -23 -94 -23 -105 0 -110
4 -110 100 0 105 10 100 -221 100 -191 0 -202 -1 -247 -24 -51 -26 -87 -61
-121 -118 -19 -31 -22 -53 -23 -132 0 -92 1 -96 35 -148 21 -30 57 -67 86 -85
l50 -33 210 0 c243 0 231 -5 231 103 0 85 13 97 108 97 48 0 75 -5 85 -14 13
-14 30 -163 31 -285 1 -49 12 -38 -165 -161 -192 -133 -329 -234 -329 -243 0
-5 17 -62 39 -126 21 -64 46 -141 55 -171 9 -30 36 -116 60 -190 24 -74 58
-182 76 -240 17 -58 36 -118 42 -135 5 -16 13 -43 15 -58 10 -55 28 -59 310
-64 348 -5 337 -3 370 -61 15 -26 51 -84 81 -130 29 -46 52 -90 50 -99 -4 -24
-85 -83 -113 -83 -15 0 -35 15 -59 45 -67 81 -85 80 -199 -10 -69 -55 -75 -67
-50 -99 183 -237 296 -376 306 -376 22 1 177 132 177 150 0 9 -14 37 -32 61
-63 87 -63 88 -15 131 77 68 83 69 130 17 96 -104 157 -185 157 -208 0 -14
-20 -86 -45 -160 -44 -133 -61 -189 -92 -301 -9 -30 -20 -65 -24 -78 -15 -40
-12 -43 227 -212 58 -41 158 -113 222 -160 65 -47 144 -103 175 -125 32 -22
81 -57 110 -78 104 -76 86 -74 163 -21 38 26 130 93 204 148 167 125 180 134
216 138 32 3 28 -8 59 158 9 47 22 117 30 155 25 121 29 181 13 188 -14 5 -69
-5 -220 -39 -111 -25 -111 -14 -2 150 41 60 73 117 72 126 -2 8 -32 33 -66 55
-194 123 -463 349 -595 499 -39 45 -73 83 -77 86 -17 14 -160 211 -220 305
-94 146 -208 364 -253 480 -35 92 -59 151 -69 171 -22 46 -9 58 65 59 l68 2
20 -38 c10 -21 19 -44 19 -52 0 -40 184 -414 261 -529 21 -33 39 -62 39 -64 0
-7 119 -166 134 -179 6 -5 29 -32 51 -60 153 -191 464 -460 658 -568 26 -15
54 -27 61 -27 17 0 76 83 76 108 0 13 -20 32 -62 57 -183 112 -464 357 -607
530 -78 93 -161 201 -161 209 0 2 -19 33 -42 68 -44 64 -58 89 -123 213 -61
116 -125 274 -125 307 0 17 26 18 478 16 461 -3 477 -4 474 -22 -5 -30 -182
-206 -206 -206 -12 0 -32 11 -44 25 -13 14 -42 30 -65 36 -97 26 -184 -20
-212 -114 -14 -46 -14 -56 0 -97 29 -85 77 -120 163 -120 52 0 63 4 100 36 27
23 45 49 52 73 7 28 18 42 39 51 25 10 131 111 289 277 23 23 50 46 61 52 11
7 82 11 170 11 175 0 176 0 168 -100 -6 -71 -1 -65 -208 -268 -146 -143 -158
-153 -179 -142 -12 7 -49 12 -81 12 -49 0 -66 -5 -94 -27 -78 -59 -97 -161
-45 -233 45 -63 73 -77 150 -76 76 0 102 15 145 79 23 34 26 47 21 89 l-5 50
199 202 200 201 0 166 c0 140 -2 167 -16 178 -14 11 -213 15 -1148 19 l-1131
5 0 705 0 705 339 3 c241 2 343 6 353 14 21 17 15 550 -6 546 -16 -3 -21 -11
-59 -98 -40 -90 -72 -177 -94 -250 -16 -55 -24 -60 -95 -60 l-64 0 7 48 c3 26
13 59 20 74 8 15 14 34 14 42 0 9 6 30 14 48 8 18 31 74 51 123 46 110 141
304 180 365 85 135 127 196 206 300 113 149 185 230 340 376 112 105 409 334
434 334 2 0 39 21 82 46 43 25 85 49 93 54 32 18 245 123 289 142 74 32 287
99 416 131 347 87 877 101 1195 31 36 -8 74 -14 84 -14 11 0 42 -6 70 -14 28
-8 80 -22 116 -31 195 -51 342 -108 545 -211 312 -159 500 -297 761 -558 198
-198 326 -369 492 -656 39 -67 122 -240 122 -254 0 -8 4 -17 10 -21 5 -3 14
-20 19 -38 5 -18 19 -57 31 -87 36 -92 60 -174 60 -202 0 -27 -1 -28 -58 -28
-62 0 -92 18 -92 53 0 9 -7 31 -15 49 -8 18 -24 61 -36 96 -12 35 -25 59 -30
55 -4 -4 -9 -96 -11 -203 l-3 -195 315 -3 c173 -1 318 -6 323 -11 10 -10 11
-1379 1 -1404 -6 -16 -102 -17 -1268 -19 l-1261 -3 -6 -51 c-4 -29 -10 -58
-15 -65 -5 -8 -7 -79 -6 -159 l3 -145 120 -115 120 -115 -44 -49 c-55 -59 -73
-133 -48 -199 17 -45 78 -94 124 -101 116 -16 202 58 200 174 -1 60 -24 104
-74 138 -24 16 -42 38 -45 54 -4 17 -37 58 -82 100 -41 40 -97 94 -123 120
l-49 48 0 105 c0 93 2 105 19 115 27 14 164 13 179 -2 8 -8 12 -47 12 -113 l0
-100 212 -208 212 -208 8 -71 c7 -66 10 -75 47 -112 40 -39 42 -40 113 -41 85
0 118 18 156 88 46 87 15 173 -80 221 l-57 28 -49 -17 c-32 -12 -54 -15 -64
-9 -9 5 -100 91 -202 190 l-187 182 3 88 3 89 94 3 c107 3 111 1 111 -69 0
-45 2 -47 120 -164 66 -66 127 -123 137 -129 9 -5 67 -8 128 -7 l111 2 41 -49
c74 -88 157 -106 231 -52 51 37 69 64 77 115 20 126 -86 228 -203 196 -48 -12
-102 -54 -102 -78 0 -25 -42 -35 -141 -31 l-99 3 -95 95 c-53 52 -98 105 -101
118 -14 53 -25 52 553 52 594 0 564 4 530 -66 -10 -19 -23 -49 -31 -66 -28
-64 -118 -244 -137 -273 -10 -16 -23 -39 -29 -50 -33 -62 -89 -144 -183 -270
-88 -117 -322 -361 -402 -420 -22 -17 -42 -33 -45 -36 -7 -8 -149 -111 -182
-132 -16 -10 -28 -22 -28 -28 0 -14 -38 -97 -65 -139 -35 -55 -40 -80 -17 -80
11 0 30 8 43 18 13 9 44 28 69 42 336 180 738 593 961 985 52 92 142 273 175
354 20 47 43 103 51 124 l16 37 69 0 c78 0 78 0 47 -80 -11 -30 -25 -68 -31
-85 -6 -16 -15 -34 -19 -39 -5 -6 -9 -16 -9 -24 0 -17 -126 -276 -170 -347
-16 -27 -33 -56 -37 -64 -13 -29 -157 -237 -200 -291 -89 -111 -103 -127 -189
-216 -275 -284 -544 -475 -879 -623 -52 -24 -185 -78 -207 -85 -19 -6 -37 -43
-73 -151 -49 -147 -53 -152 -140 -175 -28 -8 -75 -25 -315 -111 -47 -17 -96
-32 -110 -33 -25 -1 -25 0 -22 63 2 35 10 84 18 110 19 65 18 110 -3 118 -10
4 -31 16 -48 29 -71 52 -73 52 -300 40 l-210 -11 3 -23 c1 -13 26 -56 55 -95
29 -40 60 -81 68 -93 7 -12 40 -54 71 -95 31 -41 97 -126 145 -189 49 -63 96
-124 105 -135 114 -134 279 -356 275 -369 -2 -7 -65 -13 -183 -16 l-179 -5 -6
-110 c-4 -91 -3 -112 10 -123 16 -13 187 -16 274 -4 l48 7 36 110 c20 61 41
126 48 145 7 19 21 64 30 100 10 36 29 102 42 147 l24 82 54 16 c30 8 77 20
105 25 28 5 58 14 68 19 9 5 36 12 59 16 41 6 42 6 62 -34 12 -22 21 -56 21
-75 0 -30 -4 -37 -27 -43 -46 -11 -111 -42 -115 -55 -7 -21 35 -147 51 -153
15 -6 264 69 339 101 18 8 40 14 48 14 9 0 29 9 45 21 32 23 32 38 -2 117 -21
48 -33 51 -115 26 -28 -10 -59 -14 -67 -11 -8 3 -24 34 -35 69 l-21 63 22 17
c12 10 31 20 42 23 11 4 29 10 40 15 72 33 197 80 210 80 15 0 48 -22 203
-137 93 -70 215 -157 243 -175 30 -18 3 -35 388 239 68 48 134 95 147 103 50
33 251 180 287 210 20 18 37 38 37 45 0 8 -16 62 -35 122 -19 59 -42 131 -50
158 -8 28 -25 79 -36 115 -12 36 -30 91 -39 123 l-18 57 89 110 c50 61 98 114
108 119 13 7 26 1 59 -29 23 -22 42 -48 42 -58 0 -11 -16 -39 -35 -63 -19 -24
-35 -47 -35 -51 0 -9 83 -91 135 -133 30 -25 56 -36 105 -44 163 -26 197 -32
225 -40 17 -5 51 -12 77 -15 36 -4 47 -2 52 11 4 8 2 21 -4 28 -6 7 -15 26
-20 42 -5 15 -17 51 -28 78 -100 257 -109 271 -203 341 -26 19 -54 34 -64 34
-10 0 -33 -13 -52 -30 -18 -16 -42 -30 -51 -30 -10 0 -35 18 -56 39 -43 44
-43 56 3 126 14 22 28 45 31 50 3 6 26 43 52 83 45 68 50 72 85 73 536 12 575
14 594 38 11 13 19 32 19 42 0 10 6 33 14 51 8 18 35 101 62 183 26 83 66 209
89 280 108 335 125 392 120 406 -3 8 -29 30 -57 49 -142 95 -419 297 -430 314
-11 16 3 289 15 304 7 9 34 12 91 10 l81 -3 5 -78 c7 -108 5 -107 200 -107
125 0 160 3 178 16 22 15 22 18 22 258 0 223 -2 244 -18 259 -16 14 -43 17
-173 17 -198 0 -199 -1 -199 -109 0 -46 -5 -82 -12 -89 -7 -7 -43 -12 -90 -12
-91 0 -81 -17 -97 170 -18 205 -32 174 134 297 80 60 190 141 245 180 55 40
103 80 106 88 4 8 -19 93 -50 187 -31 95 -70 218 -87 273 -17 55 -35 110 -40
123 -23 58 -109 324 -109 336 0 8 -8 24 -18 35 -16 21 -27 22 -307 31 -160 5
-298 12 -307 15 -8 3 -38 41 -64 83 -75 117 -73 114 -59 142 13 26 110 110
127 110 5 0 32 -25 60 -55 27 -30 58 -55 68 -55 15 0 159 114 250 199 19 17
56 48 81 68 l46 35 6 86 c3 48 3 100 0 117 -8 39 -95 125 -153 152 -140 64
-159 66 -216 24 -100 -74 -310 -260 -323 -285 -12 -25 -11 -31 6 -55 11 -14
35 -48 54 -74 l33 -48 -44 -39 c-24 -22 -57 -45 -73 -51 -32 -14 -13 -31 -182
171 -108 130 -105 119 -65 255 11 39 28 95 36 125 30 106 45 155 60 205 32
106 37 135 23 151 -7 8 -51 42 -98 75 -47 33 -124 87 -171 120 -47 33 -107 75
-135 94 -27 18 -71 49 -96 67 -26 18 -84 60 -130 93 -46 33 -88 62 -94 64 -5
2 -27 17 -49 33 -21 15 -44 28 -51 28 -6 0 -43 -23 -81 -50 -38 -28 -91 -66
-119 -84 -27 -19 -88 -62 -135 -95 -124 -88 -143 -98 -177 -81 -39 18 -75 33
-168 70 -114 46 -143 56 -205 75 -30 10 -64 21 -76 25 -11 5 -61 18 -110 29
-188 46 -178 38 -215 156 -77 242 -147 447 -157 457 -7 7 -994 16 -1038 10z
m625 -310 c40 -20 64 -42 92 -82 36 -51 39 -60 39 -127 0 -95 -5 -107 -35 -87
-25 16 -40 48 -50 108 -8 51 -38 90 -85 111 -37 17 -75 17 -158 -1 -56 -11
-85 36 -39 66 74 49 155 53 236 12z m-289 -201 c1 -60 28 -120 72 -153 49 -37
96 -44 163 -22 52 16 57 16 72 1 14 -14 15 -20 3 -41 -51 -96 -259 -64 -338
52 -28 41 -33 60 -39 130 -7 98 3 121 43 95 20 -12 24 -24 24 -62z m221 36 c9
-7 21 -22 28 -35 25 -46 -43 -107 -94 -84 -45 21 -56 99 -16 122 22 13 63 12
82 -3z m-2080 -647 c6 -170 0 -199 -46 -239 -44 -37 -120 -71 -182 -81 -50 -9
-60 -8 -71 7 -22 30 -9 44 60 67 73 23 141 68 157 104 6 13 11 83 11 156 0 73
3 136 7 140 4 4 19 6 33 4 l25 -3 6 -155z m-183 -17 c3 -68 2 -71 -29 -97 -25
-22 -40 -26 -73 -24 -28 2 -42 8 -44 19 -4 21 115 182 131 176 7 -2 13 -30 15
-74z m369 35 c22 -20 23 -29 23 -148 l0 -127 -72 -71 c-114 -112 -126 -118
-169 -83 -26 21 -24 24 46 76 22 17 55 43 72 59 l33 29 0 132 c0 157 13 184
67 133z m-1659 -324 c12 -8 22 -19 22 -24 0 -17 -71 -81 -86 -78 -9 2 -22 20
-29 40 -11 33 -10 39 7 58 22 24 55 26 86 4z m170 -40 c29 -8 28 -27 -4 -61
-14 -15 -53 -58 -86 -95 -64 -72 -93 -84 -104 -44 -9 38 -3 49 70 130 67 75
79 82 124 70z m6786 -113 c86 -57 88 -164 4 -230 -19 -15 -41 -21 -80 -21 -49
0 -58 4 -90 36 -69 68 -60 160 22 217 33 23 107 22 144 -2z m-271 -1103 c13
-7 17 -18 15 -41 -2 -27 -8 -33 -33 -37 l-30 -5 0 -160 0 -160 168 -3 167 -2
10 25 c12 31 13 274 2 292 -4 7 -36 13 -72 15 -63 3 -65 4 -68 31 -6 49 10 57
118 57 74 0 101 -4 110 -15 9 -11 11 -66 5 -232 -4 -120 -11 -226 -17 -235 -8
-16 -31 -18 -253 -18 -231 0 -245 1 -255 19 -11 22 -14 440 -2 457 4 6 14 14
22 17 22 8 92 5 113 -5z m-7243 -1328 c82 -42 110 -140 59 -210 -25 -33 -76
-60 -114 -60 -63 0 -135 75 -135 141 0 45 44 109 91 132 44 21 52 21 99 -3z
m903 -1054 c25 -19 21 -49 -13 -110 l-31 -54 33 -46 c27 -40 33 -57 36 -116 4
-61 1 -77 -23 -125 l-28 -54 31 -59 c23 -44 28 -62 19 -71 -23 -23 -52 -11
-80 34 -31 48 -56 62 -86 46 -86 -46 -250 54 -282 173 -22 80 25 197 98 245
51 34 75 38 93 16 17 -20 5 -47 -33 -70 -104 -65 -99 -229 9 -280 114 -54 258
78 203 188 -6 12 -31 40 -55 62 l-45 40 16 35 c16 35 63 123 78 148 10 16 37
15 60 -2z m6610 -83 c57 -20 108 -67 139 -126 31 -58 31 -175 1 -230 -69 -126
-231 -175 -350 -107 -58 33 -94 75 -116 135 -26 69 -28 95 -11 155 41 145 194
224 337 173z m-1440 -134 c30 -16 37 -28 37 -71 0 -31 -5 -40 -30 -53 -39 -20
-54 -19 -84 8 -40 36 -42 63 -7 97 32 32 50 36 84 19z m-3856 -21 c30 -28 30
-74 1 -105 -27 -29 -57 -29 -92 -2 -32 25 -34 66 -5 103 25 32 64 34 96 4z
m-1469 -58 c25 -23 27 -33 11 -61 -27 -52 -109 -38 -109 18 0 57 57 81 98 43z
m1893 -271 c35 -25 38 -64 8 -103 -30 -38 -79 -36 -113 5 -14 17 -26 35 -26
39 0 19 63 80 82 80 11 0 33 -9 49 -21z m2443 -40 c30 -35 33 -60 10 -94 -20
-30 -77 -34 -106 -8 -25 23 -24 81 4 110 30 32 61 29 92 -8z m601 -4 c47 -46
22 -115 -42 -115 -49 0 -73 24 -73 71 0 66 68 92 115 44z m1662 -880 c30 -51
27 -81 -7 -78 -58 6 -90 15 -105 30 -15 14 -13 19 22 55 21 21 44 37 53 36 8
-2 25 -21 37 -43z m-1238 -182 c17 -10 31 -24 31 -31 0 -7 -21 -25 -47 -40
-27 -15 -72 -51 -102 -81 l-54 -53 7 -103 c7 -111 0 -130 -46 -123 -23 3 -23
6 -26 136 -2 115 0 136 15 156 28 35 167 155 180 156 6 0 25 -8 42 -17z m281
-104 c20 -37 8 -50 -67 -74 -83 -26 -158 -67 -173 -95 -5 -10 -10 -82 -10
-160 0 -121 -2 -142 -16 -147 -9 -3 -24 -2 -33 4 -13 8 -17 37 -21 162 -3 84
-1 162 3 174 10 26 57 77 71 77 5 0 17 6 25 13 9 7 43 21 76 31 33 10 71 21
85 26 40 13 49 11 60 -11z m13 -185 c8 -9 -30 -68 -80 -124 -36 -40 -48 -48
-59 -39 -15 12 -19 105 -6 126 18 28 126 56 145 37z"/>
<path d="M7979 7707 c-44 -34 -44 -83 1 -107 28 -15 48 -12 70 10 26 26 25 64
-2 90 -25 23 -46 25 -69 7z"/>
<path d="M7946 4133 c-44 -7 -126 -93 -128 -135 -6 -146 77 -224 217 -203 143
22 180 236 55 316 -28 18 -99 29 -144 22z m91 -115 c29 -27 29 -57 2 -92 -51
-64 -136 3 -98 77 23 43 60 49 96 15z"/>
<path d="M4285 8044 c-184 -29 -281 -47 -330 -61 -27 -7 -75 -21 -105 -30 -30
-8 -70 -22 -88 -29 -18 -8 -39 -14 -47 -14 -8 0 -29 -6 -47 -14 -18 -8 -73
-31 -123 -51 -125 -52 -282 -135 -430 -228 -94 -59 -312 -234 -413 -332 -177
-170 -367 -404 -432 -530 -6 -11 -19 -33 -30 -50 -50 -75 -43 -85 59 -85 l79
0 38 58 c69 106 138 207 148 218 6 6 31 36 56 65 95 115 226 244 386 379 169
143 426 288 719 404 22 9 56 17 75 18 l35 3 0 -457 0 -458 110 -109 c96 -97
114 -111 151 -117 43 -6 84 1 84 15 0 5 -21 31 -48 58 -26 27 -78 81 -115 120
l-67 72 0 460 0 461 28 6 c15 3 50 13 78 21 94 29 87 61 79 -420 l-7 -423 183
-187 184 -187 52 0 c28 0 55 5 58 11 8 11 -33 57 -222 251 l-133 136 2 429 3
428 50 7 c180 26 319 32 468 19 301 -25 413 -45 637 -113 52 -15 112 -35 133
-43 20 -8 56 -23 80 -32 52 -21 308 -144 362 -175 277 -158 629 -486 803 -745
21 -32 58 -87 83 -123 25 -36 48 -74 52 -83 6 -15 18 -17 89 -15 68 2 83 6 86
20 5 26 -149 261 -282 429 -107 136 -315 345 -421 423 -22 17 -42 33 -45 37
-6 8 -179 129 -185 129 -2 0 -31 18 -65 41 -82 54 -264 149 -375 194 -49 20
-105 43 -123 51 -18 8 -39 14 -47 14 -8 0 -29 6 -47 14 -98 41 -331 93 -538
121 -149 20 -556 19 -685 -1z"/>
<path d="M4495 7640 c-60 -18 -115 -100 -115 -170 0 -47 28 -97 75 -137 l45
-37 0 -138 0 -139 121 -132 c67 -73 151 -162 187 -199 l64 -68 59 0 c37 0 59
4 59 11 0 6 -22 37 -50 69 -27 32 -50 64 -50 72 0 9 42 53 93 99 137 124 127
100 127 275 0 150 0 152 25 168 116 76 128 220 24 295 -35 26 -51 31 -98 31
-60 0 -94 -16 -129 -61 -57 -71 -44 -180 28 -242 l40 -34 0 -130 0 -130 -79
-74 c-43 -41 -88 -83 -99 -93 -22 -19 -22 -19 -117 74 l-95 94 0 127 0 127 43
35 c48 39 85 124 74 168 -27 101 -138 168 -232 139z m112 -112 c30 -28 29 -68
-2 -102 -30 -33 -64 -33 -99 -1 -31 29 -33 63 -5 99 26 33 73 35 106 4z m504
-6 c26 -24 31 -33 25 -56 -16 -66 -87 -88 -125 -40 -28 36 -26 70 5 99 35 32
57 31 95 -3z"/>
<path d="M5433 7416 c-66 -30 -103 -89 -103 -165 0 -61 22 -100 79 -142 l41
-31 0 -138 0 -138 -33 -39 c-18 -21 -51 -57 -75 -80 -23 -23 -42 -47 -42 -53
0 -6 27 -10 64 -10 l65 0 63 65 62 65 -3 160 -3 160 37 32 c57 51 77 90 78
156 2 67 -13 95 -68 138 -43 33 -114 41 -162 20z m118 -105 c26 -21 32 -79 10
-105 -19 -22 -93 -21 -113 2 -30 33 -30 58 -2 91 30 36 70 41 105 12z"/>
<path d="M5881 7227 c-46 -15 -96 -69 -111 -121 -17 -62 1 -114 62 -177 75
-77 68 -111 -49 -227 -70 -69 -69 -82 5 -82 57 1 57 1 130 69 l72 68 0 66 c0
65 0 66 41 98 73 58 97 145 60 217 -26 50 -58 78 -106 91 -47 13 -59 13 -104
-2z m104 -112 c30 -29 32 -64 5 -92 -28 -31 -55 -36 -88 -19 -34 17 -46 53
-33 89 19 51 77 62 116 22z"/>
<path d="M3298 7163 c-54 -15 -102 -64 -119 -121 -20 -69 22 -161 92 -197 17
-9 56 -15 97 -15 69 0 70 0 107 -42 21 -24 65 -71 98 -105 l60 -63 63 0 c44 0
64 4 64 12 0 7 -59 72 -132 145 l-132 132 12 39 c16 53 15 73 -7 124 -34 79
-117 116 -203 91z m102 -115 c37 -40 23 -96 -30 -118 -25 -10 -34 -10 -55 4
-38 25 -49 52 -35 87 22 52 83 66 120 27z"/>
<path d="M6193 6819 c-51 -25 -81 -73 -89 -143 -7 -60 0 -66 66 -56 32 4 35 8
35 37 1 20 10 42 25 58 49 53 120 16 120 -63 l0 -42 44 0 c52 0 56 6 48 75 -7
67 -35 110 -86 134 -54 27 -110 27 -163 0z"/>
<path d="M2277 6493 c-13 -12 -8 -561 4 -569 18 -11 480 -5 515 7 17 5 41 24
54 42 21 27 24 44 25 109 0 73 -1 78 -32 110 -18 19 -33 37 -33 41 0 3 11 23
25 43 45 66 29 147 -38 198 l-34 26 -240 0 c-132 0 -243 -3 -246 -7z m391
-129 c23 -15 28 -48 13 -73 -20 -31 -208 -43 -235 -15 -19 18 -21 75 -4 92 19
19 198 16 226 -4z m24 -231 c18 -19 20 -27 12 -50 -9 -28 -10 -28 -122 -33
-138 -6 -152 -2 -152 44 0 59 18 68 136 64 91 -3 106 -6 126 -25z"/>
<path d="M2977 6494 c-9 -9 -8 -477 1 -529 l7 -40 64 -3 c36 -2 69 2 75 8 7 7
9 68 7 176 -3 151 -1 166 14 162 10 -2 33 -42 61 -108 100 -235 104 -240 165
-240 28 0 33 6 76 98 101 218 125 264 134 255 5 -5 10 -85 11 -178 l3 -170 75
0 75 0 0 285 0 285 -105 0 -105 0 -84 -168 -84 -169 -22 24 c-12 13 -39 61
-60 108 -21 47 -53 112 -70 145 l-31 60 -100 3 c-55 1 -103 0 -107 -4z"/>
<path d="M3929 6476 c-71 -48 -74 -60 -74 -261 0 -171 1 -182 23 -212 12 -17
39 -42 60 -55 36 -22 44 -23 252 -23 l215 0 0 60 0 60 -172 3 -173 2 -17 27
c-14 21 -18 48 -18 123 0 108 7 144 32 156 10 5 92 11 183 14 l165 5 0 60 0
60 -220 3 c-219 2 -220 2 -256 -22z"/>
<path d="M4502 6483 c-5 -10 -10 -99 -11 -198 -1 -217 9 -265 68 -318 33 -30
49 -36 105 -42 36 -4 126 -6 200 -3 128 3 135 5 171 32 64 49 69 72 70 321 l0
220 -80 0 -80 0 -3 -200 c-3 -252 1 -245 -142 -245 -136 0 -129 -12 -132 241
l-3 204 -77 3 c-66 2 -78 0 -86 -15z"/>
<path d="M5683 6480 c-18 -10 -44 -37 -58 -59 -26 -38 -27 -43 -27 -209 -1
-189 5 -210 74 -262 32 -24 39 -25 243 -31 234 -6 235 -6 235 59 0 71 -2 72
-185 72 -202 0 -195 -5 -195 145 0 55 3 110 6 123 12 45 52 54 216 51 123 -3
151 -1 158 11 14 21 12 94 -2 108 -9 9 -72 12 -222 12 -192 0 -214 -2 -243
-20z"/>
<path d="M6778 6435 c-3 -3 -3 -35 0 -70 7 -99 17 -95 -242 -95 -159 0 -225
-3 -234 -12 -14 -14 -16 -96 -3 -116 6 -10 57 -13 234 -12 254 1 264 -2 246
-62 -13 -47 -11 -88 4 -88 7 0 52 28 99 63 48 34 114 82 147 105 34 24 61 50
61 58 0 7 -20 28 -44 46 -24 18 -89 68 -144 111 -98 75 -113 83 -124 72z"/>
<path d="M5212 6198 c-17 -17 -15 -74 4 -92 23 -23 275 -23 298 0 18 18 21 56
6 85 -10 17 -23 19 -153 19 -98 0 -147 -4 -155 -12z"/>
<path d="M3316 5804 c-10 -26 -7 -154 4 -175 10 -17 22 -19 140 -19 118 0 130
2 140 19 14 27 13 164 -2 179 -8 8 -55 12 -144 12 -111 0 -133 -3 -138 -16z"/>
<path d="M2827 5774 c-4 -4 -7 -245 -7 -535 0 -471 2 -528 16 -533 9 -3 69 -6
134 -6 87 0 120 4 129 14 8 9 10 159 9 537 l-3 524 -136 3 c-74 1 -138 -1
-142 -4z"/>
<path d="M2344 5756 c-16 -11 -89 -103 -176 -221 -82 -109 -123 -162 -136
-172 -23 -19 -136 -17 -152 2 -10 12 -12 56 -7 189 5 129 3 177 -6 190 -11 14
-30 16 -147 14 l-135 -3 0 -525 0 -525 130 -3 c72 -1 137 2 145 8 12 8 15 43
17 202 1 106 4 201 7 211 3 14 16 17 74 17 l71 0 43 -56 c217 -284 292 -375
313 -380 12 -3 83 -3 156 0 74 3 140 6 147 6 6 0 12 4 12 8 0 8 -75 109 -155
209 -22 27 -67 85 -100 128 -33 42 -65 83 -70 89 -38 42 -75 96 -75 111 0 15
95 149 147 205 12 14 42 50 65 81 24 31 71 91 106 133 34 43 62 82 62 87 0 5
-67 9 -158 9 -120 0 -162 -3 -178 -14z"/>
<path d="M4193 5522 c-23 -10 -58 -33 -77 -51 -20 -19 -37 -33 -39 -30 -2 2
-8 22 -13 44 l-9 40 -125 0 -125 0 0 -530 0 -530 139 -3 c105 -2 142 1 148 10
5 7 6 78 3 158 -7 171 -2 188 45 141 63 -63 93 -71 254 -71 113 0 155 4 188
17 58 22 102 57 130 101 22 36 23 43 23 292 0 244 -1 257 -22 297 -29 54 -82
96 -145 117 -72 23 -316 22 -375 -2z m187 -218 c31 -4 44 -13 60 -39 17 -28
20 -49 20 -154 0 -136 -9 -162 -62 -180 -44 -16 -260 -14 -281 2 -14 10 -17
37 -19 169 -3 148 -2 159 18 178 33 34 136 43 264 24z"/>
<path d="M4938 5530 c-17 -10 -18 -47 -18 -535 0 -513 0 -525 20 -535 12 -6
69 -9 142 -8 l123 3 3 173 c1 94 6 172 10 172 4 0 20 -14 36 -30 54 -58 99
-70 255 -70 118 0 148 3 194 21 66 25 107 62 138 127 22 44 24 60 27 260 3
187 1 220 -15 264 -24 68 -75 118 -147 146 -50 19 -77 22 -204 22 -134 0 -152
-2 -197 -24 -27 -13 -63 -38 -79 -55 -38 -39 -46 -39 -46 2 0 59 -14 67 -125
73 -64 3 -106 1 -117 -6z m574 -226 c60 -20 68 -43 68 -195 0 -130 -9 -162
-49 -178 -69 -27 -269 -24 -307 4 -16 12 -18 28 -16 166 4 170 7 181 75 206
47 17 176 16 229 -3z"/>
<path d="M6285 5531 c-104 -17 -137 -31 -184 -80 -68 -70 -81 -129 -80 -358 0
-223 13 -263 106 -330 82 -59 137 -66 463 -61 237 4 293 7 301 19 14 23 11
186 -3 190 -7 2 -125 2 -263 -1 -164 -4 -259 -2 -275 5 -17 7 -28 22 -34 47
-17 69 -21 68 314 68 187 0 300 4 302 10 2 5 0 81 -3 167 -5 147 -7 161 -31
198 -31 49 -86 89 -153 111 -57 18 -374 28 -460 15z m342 -223 c20 -18 23 -30
21 -68 l-3 -45 -162 -3 c-150 -2 -163 -1 -165 15 -6 73 22 119 76 127 17 2 71
3 120 1 76 -3 92 -7 113 -27z"/>
<path d="M7515 5521 c-22 -10 -54 -32 -70 -49 -34 -36 -55 -41 -55 -12 0 10
-5 31 -12 45 -11 25 -12 25 -140 25 l-128 0 -2 -382 c-2 -420 -2 -428 7 -437
4 -3 68 -6 143 -6 l137 0 5 256 c5 235 7 259 24 278 29 32 108 51 216 51 61 0
100 4 108 12 19 19 16 202 -4 222 -23 24 -175 22 -229 -3z"/>
<path d="M3445 5520 l-120 -5 0 -405 0 -405 124 -3 c82 -2 128 1 137 9 12 9
14 80 14 400 0 339 -2 390 -16 403 -8 9 -16 15 -17 14 -1 -1 -56 -4 -122 -8z"/>
<path d="M7610 5076 c0 -8 9 -18 20 -21 23 -7 29 -27 32 -110 2 -48 7 -60 21
-63 15 -3 17 6 17 77 0 77 1 80 27 93 46 22 32 33 -44 36 -59 2 -73 0 -73 -12z"/>
<path d="M7498 5003 c-73 -6 -63 -29 15 -35 69 -6 87 -2 87 17 0 14 -24 26
-43 23 -7 -1 -33 -3 -59 -5z"/>
<path d="M4188 4469 c-27 -15 -25 -114 1 -129 12 -6 95 -10 199 -10 155 0 181
-2 186 -16 3 -9 6 -68 6 -131 l0 -116 34 -41 c54 -66 84 -96 96 -96 8 0 11 58
9 191 -1 105 3 195 7 199 5 5 34 10 64 12 l55 3 0 65 0 65 -145 6 c-235 10
-493 9 -512 -2z"/>
<path d="M4430 3968 c0 -39 25 -162 46 -232 20 -63 12 -71 -58 -58 -123 23
-457 115 -530 147 -36 15 -29 -23 18 -101 26 -44 56 -89 65 -102 19 -24 103
-92 114 -92 4 0 70 -41 146 -92 118 -79 139 -96 139 -118 0 -14 -31 -88 -70
-165 -38 -77 -70 -146 -70 -154 0 -8 26 -48 58 -89 31 -41 67 -89 79 -106 11
-17 41 -53 65 -80 l44 -49 94 -7 c97 -8 119 -17 270 -110 8 -5 33 -19 55 -31
22 -11 59 -34 83 -50 24 -16 45 -29 47 -29 17 0 175 -105 180 -119 3 -10 -2
-37 -10 -61 -8 -23 -15 -54 -15 -67 0 -29 11 -29 100 7 30 12 66 25 80 30 98
34 106 39 127 76 13 22 23 53 23 71 0 30 -1 31 -45 31 -29 -1 -52 5 -63 15
-10 10 -22 17 -25 17 -4 0 -33 19 -64 43 -49 37 -209 146 -288 197 -63 41
-135 91 -139 99 -8 12 6 22 112 86 98 59 134 67 194 41 18 -8 47 -20 63 -27
17 -7 77 -29 135 -49 l105 -37 -2 -56 c-2 -63 5 -68 55 -44 15 8 49 20 75 27
60 16 70 6 61 -57 -8 -56 7 -56 67 0 40 38 93 122 163 258 l19 36 -63 84 c-35
46 -68 87 -73 90 -11 8 -47 -1 -47 -11 0 -4 -11 -15 -25 -24 -23 -15 -28 -14
-107 23 -179 84 -219 101 -231 101 -7 0 -27 12 -45 28 -28 23 -34 36 -42 92
-16 112 -30 139 -80 160 -100 41 -281 110 -380 146 l-105 37 -118 121 c-66 66
-130 135 -144 153 -32 42 -43 42 -43 1z m555 -563 c196 -90 263 -129 235 -139
-8 -2 -70 -7 -138 -9 l-123 -5 -33 51 c-45 70 -69 124 -62 136 8 12 43 2 121
-34z"/>
<path d="M3935 3500 c-11 -6 -54 -32 -95 -59 -41 -28 -135 -87 -209 -132 -182
-112 -236 -149 -236 -162 0 -15 44 -37 75 -37 29 0 70 -25 70 -42 0 -13 -52
-93 -116 -178 -22 -30 -63 -86 -89 -125 -27 -38 -53 -74 -57 -80 -28 -33 -88
-120 -88 -126 0 -15 26 -16 74 -3 27 7 74 16 104 20 l55 7 -7 -59 c-3 -33 -13
-95 -22 -139 -8 -44 -22 -116 -30 -160 -9 -44 -22 -105 -29 -135 -7 -30 -16
-76 -20 -102 -6 -45 -5 -48 17 -48 13 0 53 13 90 29 38 16 70 26 72 23 2 -4
11 -56 20 -117 29 -185 49 -275 60 -275 10 0 55 57 81 102 6 9 34 52 64 95
l54 78 -13 45 c-22 79 -50 214 -50 245 0 17 -6 66 -14 110 -55 301 -56 332
-20 470 14 55 30 119 34 143 5 23 14 51 20 61 5 11 10 28 10 38 0 33 44 111
95 168 28 32 94 103 147 159 61 63 98 109 98 123 0 39 -102 84 -145 63z"/>
<path d="M4072 3293 c-135 -149 -182 -207 -182 -227 0 -10 24 -49 54 -85 29
-36 73 -94 97 -128 118 -168 284 -395 295 -404 19 -15 34 -2 34 29 0 15 7 52
15 82 l14 54 -58 71 c-31 38 -73 93 -91 120 -19 28 -55 78 -82 113 -52 69 -56
82 -32 127 63 116 124 242 124 255 0 13 -85 80 -102 80 -3 0 -42 -39 -86 -87z"/>
<path d="M3810 2960 c-5 -10 -10 -31 -10 -47 0 -31 -24 -150 -46 -229 -8 -28
-14 -56 -14 -63 0 -10 312 -171 332 -171 5 0 36 -13 70 -29 81 -37 108 -45
108 -31 0 6 -27 48 -60 93 -181 247 -265 365 -295 415 -46 76 -69 93 -85 62z"/>
<path d="M1196 2908 c-30 -246 -30 -239 -12 -256 21 -21 266 -32 266 -12 0 7
-21 42 -47 77 -27 36 -57 78 -68 93 -112 155 -130 167 -139 98z"/>
<path d="M3762 2481 c-10 -6 -11 -18 -3 -52 6 -24 11 -66 12 -94 0 -27 8 -92
17 -144 l17 -95 50 -13 c61 -16 176 -42 230 -53 22 -4 85 -19 140 -33 55 -13
136 -32 180 -41 44 -10 103 -24 131 -32 101 -28 99 -18 -21 132 -115 142 -153
184 -171 184 -12 0 -47 15 -189 80 -96 44 -377 170 -379 170 0 0 -7 -4 -14 -9z"/>
<path d="M3833 1964 c3 -16 16 -60 30 -99 13 -38 41 -119 60 -180 52 -158 67
-198 79 -212 8 -10 77 -13 284 -13 l274 0 10 -25 c15 -40 12 -491 -3 -504 -7
-5 -58 -12 -113 -13 l-99 -3 -3 -170 -2 -171 64 -104 c209 -338 213 -344 237
-335 9 3 26 25 39 48 13 23 51 85 85 137 34 52 84 136 112 185 l50 90 -6 160
-6 160 -105 5 -105 5 -3 254 c-2 179 1 258 9 267 8 10 40 14 120 14 59 0 110
4 113 8 6 10 -218 308 -246 326 -13 8 -41 17 -63 21 -22 3 -68 13 -102 21
-115 26 -187 42 -263 59 -77 17 -146 33 -235 55 -27 7 -72 16 -100 21 -27 4
-65 11 -84 15 -33 7 -34 6 -28 -22z m915 -1372 c20 -3 14 -38 -18 -92 -16 -28
-30 -53 -30 -56 0 -15 -46 -64 -60 -64 -27 0 -136 186 -120 205 7 9 170 14
228 7z"/>
<path d="M3724 1648 c-96 -131 -118 -168 -107 -179 6 -6 65 -8 144 -7 l134 3
-2 25 c-2 14 -9 41 -17 60 -8 19 -21 55 -31 80 -25 66 -39 93 -50 97 -6 2 -38
-34 -71 -79z"/>
<path d="M6066 1449 c-11 -7 -33 -15 -50 -20 -17 -4 -85 -26 -151 -48 -66 -22
-138 -46 -160 -53 -30 -10 -41 -19 -43 -37 -5 -33 17 -71 42 -71 17 0 104 27
336 105 25 8 53 15 62 15 52 0 59 112 7 117 -13 2 -33 -2 -43 -8z"/>
<path d="M4044 1339 c-3 -6 1 -34 10 -63 9 -28 25 -78 35 -111 l20 -60 170 -3
171 -2 0 113 c0 75 -4 117 -12 125 -16 16 -384 17 -394 1z"/>
<path d="M5935 1206 c-138 -47 -150 -61 -83 -96 24 -12 63 -32 87 -46 24 -13
50 -24 57 -24 13 0 104 171 104 196 0 21 -34 15 -165 -30z"/>
</g>
</svg>
