<?xml version="1.0" standalone="no"?>
<!DOCTYPE svg PUBLIC "-//W3C//DTD SVG 20010904//EN"
 "http://www.w3.org/TR/2001/REC-SVG-20010904/DTD/svg10.dtd">
<svg version="1.0" xmlns="http://www.w3.org/2000/svg"
 width="465.000000pt" height="532.000000pt" viewBox="0 0 465.000000 532.000000"
 preserveAspectRatio="xMidYMid meet">

<g transform="translate(0.000000,532.000000) scale(0.100000,-0.100000)"
fill="#000000" stroke="none">
<path d="M2040 4928 c-23 -79 -47 -150 -51 -159 -5 -9 -25 -20 -46 -23 -67
-13 -176 -46 -279 -87 l-102 -40 -83 59 c-46 32 -105 73 -131 92 l-47 33 -43
-35 c-24 -19 -65 -50 -93 -68 -27 -19 -109 -78 -182 -132 l-131 -97 25 -78
c14 -43 37 -115 50 -160 l24 -83 -63 -70 c-35 -38 -65 -70 -68 -70 -3 0 -21
13 -40 29 l-35 29 23 31 c12 16 22 39 22 50 0 16 -131 138 -176 164 -6 3 -53
16 -104 27 l-94 21 -22 -28 c-13 -15 -23 -33 -24 -40 0 -7 14 -51 31 -98 33
-90 60 -124 172 -211 46 -36 47 -36 72 -20 15 10 29 24 32 32 8 20 15 18 61
-21 l41 -36 -48 -67 -47 -67 -163 -7 c-90 -4 -165 -9 -166 -10 -7 -9 -155
-487 -157 -507 -3 -21 17 -39 130 -120 l133 -95 -6 -86 c-4 -47 -8 -91 -10
-97 -3 -8 -23 -13 -55 -13 l-50 0 0 36 c0 70 -8 74 -129 74 -96 0 -112 -3
-142 -23 -92 -61 -90 -190 3 -247 28 -17 51 -20 140 -20 92 0 109 2 116 18 5
9 8 22 5 28 -2 6 1 23 6 37 9 24 16 27 56 27 28 0 47 -5 49 -12 3 -7 7 -50 10
-95 l6 -82 -135 -92 c-74 -51 -135 -97 -135 -103 0 -6 6 -28 14 -51 8 -22 42
-128 76 -235 34 -107 65 -205 70 -217 9 -22 16 -23 112 -24 57 -1 133 -4 170
-8 l68 -6 44 -72 45 -72 -31 -26 c-16 -14 -33 -25 -38 -25 -5 0 -22 16 -38 36
l-30 36 -44 -30 c-74 -51 -74 -47 6 -149 40 -50 79 -101 87 -113 14 -22 14
-22 66 20 57 45 57 45 10 113 -10 16 -7 22 23 47 l35 30 43 -48 c80 -88 78
-79 44 -184 -46 -139 -64 -209 -58 -223 4 -11 266 -204 399 -294 l48 -32 92
67 c51 38 105 78 120 91 16 13 37 23 47 23 14 0 21 10 26 38 3 20 15 79 25
131 11 52 17 96 14 99 -3 3 -43 -2 -90 -10 -47 -8 -85 -13 -85 -10 0 3 21 39
46 79 25 41 45 76 43 78 -2 1 -47 31 -99 66 -173 115 -373 339 -483 539 -41
75 -102 213 -112 251 -6 25 -4 27 34 31 l40 3 22 -60 c98 -271 317 -549 560
-711 88 -58 90 -59 115 -20 l22 34 -78 51 c-105 68 -282 239 -360 348 -56 78
-157 269 -175 331 l-6 22 266 0 266 0 -51 -60 c-29 -32 -57 -61 -64 -63 -6 -2
-22 4 -35 14 -15 12 -40 19 -67 19 -34 0 -47 -5 -63 -26 -46 -58 -6 -154 64
-154 39 0 95 42 95 71 0 10 6 19 12 19 7 0 55 42 108 93 l95 94 88 -5 87 -4 0
-42 c0 -39 -5 -47 -98 -139 -94 -94 -99 -98 -127 -87 -43 16 -89 -3 -110 -46
-31 -65 11 -134 82 -134 57 1 93 38 93 97 0 23 21 49 105 133 l105 105 0 97 0
98 -620 0 -620 0 0 385 0 385 190 0 190 0 0 163 c-1 185 -1 185 -66 15 l-37
-98 -39 0 c-37 0 -38 1 -32 28 10 43 73 200 112 277 96 194 298 427 481 558
110 78 312 183 425 221 190 63 454 95 641 76 133 -13 273 -41 380 -76 94 -31
272 -118 365 -178 280 -182 523 -495 630 -811 17 -49 30 -90 30 -92 0 -2 -18
-3 -39 -3 -39 0 -40 1 -57 53 -41 123 -43 123 -44 -10 l0 -123 175 0 175 0 0
-385 0 -385 -684 0 c-642 0 -684 -1 -691 -18 -4 -9 -10 -60 -12 -113 l-6 -97
69 -65 69 -65 -27 -26 c-40 -36 -39 -96 1 -137 40 -39 82 -39 122 0 41 42 40
91 -3 134 -18 18 -33 38 -34 45 -1 7 -32 40 -68 73 l-66 61 0 64 0 64 55 0 55
0 0 -58 0 -58 114 -114 c100 -100 114 -118 119 -154 11 -79 99 -115 152 -61
38 37 37 98 -2 134 -23 20 -33 22 -72 17 l-45 -6 -103 102 c-102 102 -103 103
-103 150 l0 48 55 0 55 0 0 -32 c0 -26 12 -43 73 -99 l72 -69 73 0 c53 0 72
-3 72 -13 0 -22 35 -47 72 -54 93 -15 141 129 58 172 -45 23 -78 19 -112 -15
-26 -26 -37 -30 -87 -30 -55 0 -58 1 -109 53 -89 90 -97 87 247 87 l300 0 -16
-38 c-107 -257 -282 -484 -483 -628 -44 -32 -80 -65 -80 -73 0 -9 -12 -34 -25
-56 -14 -22 -25 -43 -25 -48 0 -11 72 27 133 71 253 177 439 408 552 685 32
78 36 82 70 88 20 3 38 3 40 -1 2 -4 -9 -41 -25 -82 -159 -415 -484 -748 -876
-899 l-62 -24 -28 -78 -29 -78 -144 -49 c-80 -28 -146 -48 -149 -46 -3 4 12
95 24 136 2 9 -12 24 -38 39 -37 21 -52 23 -157 22 -63 -1 -118 -4 -121 -7 -8
-9 23 -54 150 -219 68 -88 152 -197 187 -243 l63 -82 -105 0 -105 0 0 -70 0
-71 92 3 92 3 32 105 c18 58 41 129 51 159 l18 54 85 23 c47 12 88 19 91 16 4
-4 11 -21 17 -39 10 -30 9 -32 -21 -44 -53 -21 -56 -25 -45 -69 7 -27 16 -40
27 -40 23 0 223 68 234 79 12 12 -11 81 -26 81 -7 0 -28 -4 -47 -10 -40 -11
-46 -7 -55 40 l-6 35 80 33 c45 17 85 32 90 32 5 0 40 -24 77 -53 38 -29 92
-69 121 -90 l51 -37 69 46 c37 26 139 99 226 162 183 133 170 95 103 306 l-43
133 58 64 58 64 27 -27 27 -26 -23 -32 -23 -32 43 -43 c35 -36 53 -46 89 -51
25 -3 77 -12 115 -20 38 -7 71 -12 74 -10 2 3 -15 53 -38 113 -36 93 -48 113
-87 146 l-46 38 -26 -25 -27 -26 -28 29 -28 29 48 76 49 76 80 2 c44 1 94 3
110 4 17 1 57 2 91 3 l61 1 50 158 c87 269 113 353 113 365 0 7 -56 51 -124
99 -68 49 -128 94 -133 100 -6 8 -8 48 -5 96 l5 82 48 0 48 0 3 -47 c4 -61 25
-70 135 -57 l78 9 0 140 0 140 -100 0 -100 0 -3 -52 -3 -53 -53 0 -53 0 -6 96
c-8 112 -23 91 150 211 62 43 112 85 113 93 0 10 -155 499 -164 517 -1 1 -77
5 -169 9 l-168 7 -35 51 c-19 28 -34 56 -34 63 0 7 19 26 42 43 l41 30 18 -27
c35 -52 42 -50 148 41 94 82 99 88 104 133 9 77 -41 138 -132 163 -33 9 -40 7
-86 -25 -27 -19 -77 -59 -110 -89 l-60 -54 32 -46 32 -46 -34 -26 c-19 -14
-38 -24 -43 -22 -18 7 -143 161 -139 172 3 6 24 78 47 159 38 127 42 150 29
161 -8 8 -97 73 -198 145 -101 73 -196 141 -211 153 l-29 21 -118 -84 c-65
-47 -123 -88 -129 -91 -6 -4 -57 11 -113 33 -56 22 -150 52 -209 68 l-107 27
-37 115 c-21 63 -45 133 -54 157 l-16 42 -287 0 -288 0 -43 -142z m425 -48
c38 -36 50 -74 40 -120 -6 -25 -9 -29 -21 -19 -8 6 -14 20 -14 31 0 28 -27 76
-51 88 -11 6 -44 10 -72 8 -41 -2 -52 0 -52 12 0 23 46 41 93 37 32 -4 53 -13
77 -37z m-197 -52 c7 -7 12 -23 12 -35 0 -67 64 -116 119 -93 30 12 51 7 51
-12 0 -20 -34 -37 -73 -38 -81 0 -137 58 -137 143 0 48 7 56 28 35z m142 -29
c15 -27 -5 -51 -39 -47 -26 3 -38 26 -27 54 8 22 54 17 66 -7z m-1135 -330 c5
-75 4 -94 -10 -115 -31 -47 -151 -83 -162 -48 -2 6 15 16 37 23 22 6 52 22 67
36 27 22 28 27 26 101 -2 73 4 93 28 94 4 0 10 -41 14 -91z m-99 -5 c5 -28 2
-40 -12 -55 -26 -25 -70 -30 -66 -7 3 22 53 98 63 98 5 0 11 -16 15 -36z m199
14 c2 -7 6 -44 8 -81 5 -64 3 -71 -23 -100 -42 -48 -83 -69 -104 -54 -15 11
-11 16 34 50 l50 37 0 80 c0 65 3 80 15 80 9 0 17 -6 20 -12z m-895 -178 c13
-8 11 -13 -11 -36 l-27 -27 -12 23 c-21 40 10 66 50 40z m100 -27 c0 -5 -24
-35 -54 -68 -53 -59 -54 -60 -61 -34 -5 21 1 34 31 67 24 27 46 42 61 42 12 0
23 -3 23 -7z m3659 -53 c10 -5 24 -23 31 -39 35 -85 -93 -143 -135 -60 -19 36
-13 61 22 89 28 22 54 25 82 10z m-139 -615 c0 -18 -5 -25 -20 -25 -19 0 -20
-7 -20 -90 l0 -91 98 3 97 3 3 88 3 87 -41 0 c-33 0 -40 3 -40 19 0 16 10 21
56 27 32 4 60 2 65 -3 6 -6 7 -60 3 -136 l-7 -127 -139 0 -138 0 0 128 c0 71
3 132 7 135 3 4 21 7 40 7 29 0 33 -3 33 -25z m-3903 -717 c31 -29 30 -72 -2
-103 -27 -28 -46 -31 -78 -13 -50 26 -60 69 -26 112 26 33 73 35 106 4z m462
-598 l-21 -37 21 -34 c25 -41 27 -77 4 -123 -15 -33 -15 -36 1 -61 14 -21 15
-29 5 -41 -11 -13 -16 -11 -37 16 -21 26 -28 30 -57 24 -67 -12 -145 53 -145
123 0 39 30 91 63 111 24 15 29 15 37 3 6 -11 1 -22 -16 -38 -35 -32 -45 -66
-33 -103 12 -34 35 -50 73 -50 38 0 55 10 72 42 19 38 11 73 -21 94 -32 21
-31 29 5 87 27 42 32 46 50 35 19 -12 19 -13 -1 -48z m3605 -9 c85 -56 89
-172 6 -231 -73 -52 -165 -26 -202 57 -27 61 -18 105 32 155 33 34 43 38 86
38 31 0 59 -7 78 -19z m-794 -65 c6 -8 10 -25 8 -38 -6 -42 -78 -32 -78 11 0
37 46 55 70 27z m-2090 -11 c15 -18 10 -45 -12 -59 -33 -20 -69 20 -54 60 7
18 50 18 66 -1z m-801 -29 c17 -20 2 -46 -25 -46 -29 0 -41 24 -24 45 16 19
34 19 49 1z m1031 -151 c14 -17 5 -51 -17 -59 -22 -9 -50 1 -57 20 -16 41 45
73 74 39z m1314 -14 c32 -36 -3 -83 -45 -61 -24 13 -25 56 -1 69 24 14 26 14
46 -8z m336 -10 c22 -42 -25 -77 -61 -45 -22 20 -24 35 -7 52 18 18 56 14 68
-7z m905 -509 c-2 -2 -22 -1 -45 3 l-42 7 28 29 28 30 17 -33 c10 -18 16 -35
14 -36z m-680 -66 c18 -13 17 -14 -11 -31 -72 -45 -84 -64 -84 -132 0 -56 -2
-63 -20 -63 -18 0 -20 7 -20 79 l0 79 43 34 c23 18 44 36 45 40 5 12 26 9 47
-6z m149 -77 c-2 -4 -18 -10 -36 -13 -18 -3 -48 -15 -65 -26 l-33 -20 0 -85
c0 -78 -2 -85 -20 -85 -19 0 -20 7 -20 99 0 97 1 99 27 117 16 10 53 25 83 35
51 16 55 16 61 0 4 -9 5 -19 3 -22z m6 -72 c0 -19 -70 -98 -81 -91 -8 4 -14
74 -6 74 1 0 20 7 42 15 22 8 41 14 43 15 1 0 2 -6 2 -13z"/>
<path d="M4182 4181 c-20 -12 -11 -55 12 -59 27 -6 48 25 35 49 -10 20 -26 24
-47 10z"/>
<path d="M4141 2244 c-13 -9 -29 -32 -37 -50 -12 -29 -12 -39 0 -68 17 -41 42
-56 91 -56 41 0 80 32 91 74 19 78 -79 146 -145 100z m86 -60 c8 -21 -9 -48
-32 -53 -26 -5 -47 26 -34 50 12 23 57 25 66 3z"/>
<path d="M2230 4370 c-413 -40 -808 -256 -1052 -576 -48 -62 -118 -173 -118
-186 0 -5 21 -8 48 -8 l47 0 48 76 c91 141 287 326 438 415 76 44 227 113 272
124 l27 7 0 -249 0 -249 63 -62 c51 -50 69 -62 95 -62 17 0 32 4 32 8 0 4 -29
37 -65 72 l-65 64 0 248 0 247 38 10 c74 21 69 37 64 -220 l-5 -231 99 -99
c85 -85 103 -99 131 -99 18 0 33 3 33 8 0 4 -45 52 -100 107 l-100 100 0 227
c0 162 3 229 12 234 6 4 77 9 157 12 249 8 486 -47 711 -164 199 -103 390
-273 518 -462 l63 -92 45 2 c24 0 44 4 44 8 0 3 -32 55 -70 114 -155 238 -410
452 -671 562 -220 93 -504 137 -739 114z"/>
<path d="M2273 4135 c-29 -20 -46 -75 -34 -107 5 -14 21 -34 35 -46 24 -18 26
-26 26 -97 l0 -77 98 -104 c90 -96 100 -103 135 -104 l38 0 -33 41 -33 41 63
56 62 57 0 86 c0 81 1 86 25 99 55 29 52 126 -6 155 -56 29 -102 14 -125 -42
-18 -41 -5 -97 27 -113 16 -9 19 -22 19 -83 l0 -73 -48 -47 c-26 -26 -52 -47
-58 -47 -5 0 -31 22 -57 48 -47 47 -47 48 -47 116 0 63 2 70 30 96 82 76 -25
209 -117 145z m91 -57 c16 -26 -4 -53 -40 -53 -23 0 -30 5 -32 23 -7 47 47 69
72 30z m272 1 c22 -24 10 -52 -25 -57 -43 -7 -65 32 -35 62 21 21 37 20 60 -5z"/>
<path d="M2775 4005 c-37 -36 -35 -98 5 -135 28 -27 30 -32 30 -106 l0 -78
-42 -43 -42 -43 40 0 c32 0 46 6 72 33 31 32 32 36 32 119 0 83 1 88 30 116
40 40 42 101 5 137 -34 35 -96 35 -130 0z m102 -48 c14 -30 -1 -57 -30 -57
-27 0 -47 17 -47 40 0 42 60 55 77 17z"/>
<path d="M3020 3910 c-28 -28 -42 -68 -34 -94 4 -11 20 -36 35 -54 16 -18 29
-39 29 -46 0 -8 -21 -37 -46 -65 l-46 -51 39 0 c53 0 103 49 103 100 0 27 7
41 31 60 22 19 32 37 36 67 5 37 2 46 -25 73 -37 37 -91 41 -122 10z m84 -46
c31 -30 8 -69 -36 -62 -26 3 -37 41 -18 64 16 18 35 18 54 -2z"/>
<path d="M1613 3866 c-22 -19 -28 -32 -28 -66 0 -56 37 -90 97 -90 37 0 46 -5
92 -56 47 -52 54 -55 89 -52 l39 3 -71 74 c-67 70 -70 76 -65 111 5 30 1 42
-21 68 -34 41 -89 44 -132 8z m97 -46 c15 -28 -4 -60 -35 -60 -33 0 -49 30
-29 58 19 27 50 28 64 2z"/>
<path d="M3223 3710 c-25 -10 -49 -43 -58 -82 -7 -27 -5 -28 28 -28 29 0 34 3
30 18 -6 24 19 44 49 40 19 -2 23 -9 23 -35 0 -29 3 -33 27 -33 25 0 28 3 28
36 0 66 -65 109 -127 84z"/>
<path d="M1477 3534 c-4 -4 -7 -76 -7 -161 l0 -153 45 0 45 0 1 103 1 102 49
-102 c41 -88 52 -103 72 -103 20 0 31 15 75 108 l50 107 1 -107 1 -108 45 0
45 0 0 103 c0 56 -3 126 -6 155 l-7 52 -56 0 -56 0 -44 -90 c-24 -50 -47 -90
-50 -90 -3 0 -26 42 -51 93 l-45 92 -50 3 c-28 2 -54 0 -58 -4z"/>
<path d="M2540 3425 c0 -73 -4 -115 -12 -123 -19 -19 -124 -16 -132 4 -3 9 -6
63 -6 120 l0 104 -45 0 -45 0 0 -124 c0 -118 1 -127 24 -153 24 -28 26 -28
140 -28 159 0 160 1 164 174 l4 129 -46 4 -46 3 0 -110z"/>
<path d="M1090 3375 l0 -155 143 0 c137 0 144 1 165 23 28 30 30 99 4 125 -16
16 -17 22 -5 37 20 28 16 82 -7 105 -18 18 -33 20 -160 20 l-140 0 0 -155z
m225 65 c0 -24 -3 -25 -67 -28 l-68 -3 0 31 0 31 68 -3 c64 -3 67 -4 67 -28z
m10 -120 c0 -24 -3 -25 -72 -28 l-73 -3 0 31 0 31 73 -3 c69 -3 72 -4 72 -28z"/>
<path d="M1972 3507 c-20 -21 -22 -34 -22 -126 0 -100 1 -103 29 -132 29 -29
30 -29 150 -29 l121 0 0 35 0 35 -95 0 c-110 0 -115 4 -115 92 0 79 3 81 114
79 l96 -2 0 36 0 35 -128 0 c-121 0 -130 -1 -150 -23z"/>
<path d="M2928 3519 c-35 -20 -51 -168 -27 -238 17 -50 51 -61 184 -61 l115 0
0 35 0 34 -102 3 -103 3 0 80 0 80 100 5 100 5 3 33 3 32 -128 0 c-70 0 -136
-5 -145 -11z"/>
<path d="M3538 3460 l5 -50 -137 0 -137 0 3 -37 3 -38 133 -3 133 -3 -7 -45
-7 -46 92 68 c51 37 89 70 84 74 -8 7 -139 107 -159 122 -8 6 -10 -7 -6 -42z"/>
<path d="M2680 3350 l0 -30 91 0 90 0 -3 28 c-3 27 -3 27 -90 30 l-88 3 0 -31z"/>
<path d="M1660 3110 l0 -60 80 0 80 0 0 60 0 60 -80 0 -80 0 0 -60z"/>
<path d="M1390 2860 l0 -290 80 0 80 0 0 290 0 290 -80 0 -80 0 0 -290z"/>
<path d="M720 2853 l0 -288 80 -2 80 -2 0 114 0 113 41 4 c46 4 39 12 169
-160 l55 -73 82 2 c44 1 86 5 91 8 6 4 -38 67 -100 144 -98 122 -109 141 -100
160 6 12 53 76 106 141 53 66 96 121 96 123 0 1 -42 3 -92 3 l-93 0 -85 -113
c-83 -109 -86 -112 -127 -115 l-43 -3 0 115 0 116 -80 0 -80 0 0 -287z"/>
<path d="M2160 3013 c-14 -3 -42 -18 -62 -34 l-38 -30 0 31 0 30 -70 0 -70 0
0 -290 0 -290 80 0 80 0 0 97 0 96 23 -20 c38 -35 63 -43 142 -43 91 0 137 17
165 62 19 30 20 46 18 175 -3 141 -3 142 -32 172 -41 42 -140 61 -236 44z
m104 -139 c12 -11 16 -35 16 -89 0 -96 -13 -107 -121 -103 l-74 3 -3 90 c-2
76 0 92 14 102 26 19 149 17 168 -3z"/>
<path d="M2745 3006 c-22 -9 -48 -24 -57 -36 -16 -20 -16 -20 -23 10 -6 30 -8
30 -71 30 l-64 0 0 -290 0 -290 81 0 82 0 -7 95 c-4 52 -5 95 -2 95 3 0 17
-11 31 -25 32 -28 92 -40 174 -32 128 11 151 47 151 232 0 141 -9 168 -64 201
-41 24 -176 30 -231 10z m129 -126 c6 -6 12 -42 14 -80 6 -105 -7 -120 -102
-120 -108 0 -106 -2 -106 94 0 92 5 103 46 116 36 12 133 5 148 -10z"/>
<path d="M3268 3011 c-116 -16 -141 -58 -142 -231 -1 -129 10 -162 67 -195 37
-22 188 -31 321 -20 l86 7 0 52 0 52 -143 -4 c-125 -4 -145 -2 -160 13 -9 9
-17 25 -17 36 0 18 9 19 171 19 l171 0 -4 89 c-3 98 -18 130 -74 163 -35 20
-190 31 -276 19z m182 -121 c11 -11 20 -29 20 -40 0 -19 -7 -20 -95 -20 -88 0
-95 1 -95 20 0 38 35 60 95 60 42 0 60 -5 75 -20z"/>
<path d="M1660 2784 l0 -225 78 3 77 4 0 62 c-1 34 -2 134 -3 222 l-2 160 -75
0 -75 0 0 -226z"/>
<path d="M3710 2790 l0 -220 83 0 82 0 -3 139 c-3 135 -3 139 19 155 16 11 46
16 96 16 l73 0 0 65 0 65 -65 0 c-58 0 -68 -3 -100 -31 l-35 -31 0 31 0 31
-75 0 -75 0 0 -220z"/>
<path d="M2120 2400 l0 -40 110 0 110 0 0 -70 c0 -69 1 -72 40 -113 l39 -42 1
113 0 112 35 0 c34 0 35 1 35 40 l0 40 -185 0 -185 0 0 -40z"/>
<path d="M2260 2176 c0 -9 7 -49 17 -91 9 -41 14 -77 11 -80 -3 -4 -236 55
-315 80 -31 10 -29 -1 15 -65 28 -41 61 -71 134 -120 53 -36 100 -68 104 -73
5 -4 -12 -47 -36 -96 l-43 -89 64 -83 65 -84 54 -5 c57 -6 90 -22 260 -127
l85 -52 -3 -47 c-2 -40 0 -45 15 -39 10 3 46 16 80 28 51 18 65 27 73 51 14
42 13 46 -15 46 -23 0 -305 181 -313 201 -2 4 26 24 61 43 l64 36 84 -31 c135
-49 126 -43 121 -78 l-4 -31 36 15 c57 24 69 20 64 -19 l-4 -34 26 18 c34 24
40 32 83 111 l37 65 -44 50 c-42 47 -44 48 -63 32 -18 -17 -23 -16 -114 25
-52 23 -99 46 -106 50 -7 4 -17 34 -24 66 l-11 58 -92 36 c-50 20 -117 46
-148 57 -46 17 -71 36 -137 106 -45 47 -81 78 -81 70z m379 -351 c75 -38 72
-45 -16 -45 -87 0 -76 -8 -123 87 l-11 23 51 -20 c28 -11 72 -31 99 -45z"/>
<path d="M1918 1867 c-43 -29 -113 -74 -155 -101 -43 -27 -73 -50 -68 -52 6
-2 29 -8 53 -14 l43 -11 -67 -97 c-37 -53 -83 -117 -101 -141 -18 -24 -31 -46
-29 -48 2 -3 30 1 61 7 31 6 59 10 62 7 2 -3 -11 -83 -30 -179 -19 -95 -33
-174 -32 -176 1 -1 23 7 49 19 26 11 49 19 50 17 2 -1 11 -51 21 -110 10 -59
21 -106 24 -104 3 3 28 36 55 76 l49 71 -16 72 c-8 40 -23 131 -32 202 l-18
130 32 124 31 123 69 77 c38 42 78 85 90 95 11 11 21 22 21 25 0 10 -56 41
-72 40 -7 0 -48 -24 -90 -52z"/>
<path d="M2041 1771 c-39 -43 -71 -84 -71 -90 0 -7 21 -40 48 -74 26 -35 81
-109 122 -165 41 -56 78 -102 82 -102 4 0 8 11 8 24 0 14 4 36 10 50 6 17 6
27 -1 32 -6 3 -42 48 -80 100 l-69 94 40 80 c22 44 40 83 40 88 0 4 -13 15
-29 25 l-29 17 -71 -79z"/>
<path d="M1920 1583 c-6 -32 -16 -74 -21 -93 -5 -19 -9 -40 -9 -47 0 -13 261
-143 286 -143 3 0 -223 316 -242 338 -1 2 -7 -23 -14 -55z"/>
<path d="M517 1606 c-3 -8 -9 -46 -13 -85 l-7 -71 39 0 c22 0 57 -3 78 -7 32
-5 38 -3 34 8 -6 15 -118 169 -123 169 -2 0 -5 -6 -8 -14z"/>
<path d="M1893 1349 c3 -13 9 -49 12 -79 13 -118 13 -118 48 -125 47 -10 368
-84 396 -92 l25 -6 -22 29 c-102 136 -108 141 -272 215 -198 89 -194 87 -187
58z"/>
<path d="M1979 958 l48 -143 156 -3 157 -3 0 -144 0 -145 -60 0 -60 0 0 -95 0
-94 58 -93 c31 -52 66 -107 78 -122 l21 -29 50 74 c102 151 103 155 103 262
l0 97 -60 0 -60 0 0 114 c0 62 3 128 6 145 6 31 7 31 70 31 35 0 64 2 64 5 0
13 -134 175 -149 179 -27 9 -453 106 -461 106 -5 0 13 -64 39 -142z m449 -614
l22 -6 -32 -59 c-18 -33 -36 -59 -39 -59 -11 0 -69 98 -69 115 0 11 12 15 48
15 26 0 57 -3 70 -6z"/>
<path d="M1867 893 c-26 -38 -47 -72 -47 -76 0 -4 35 -7 79 -7 l79 0 -25 68
c-13 37 -28 70 -32 75 -4 4 -28 -23 -54 -60z"/>
<path d="M3039 768 c-103 -35 -116 -42 -111 -60 2 -11 10 -22 17 -24 12 -5
233 63 248 77 12 9 -10 49 -26 48 -7 -1 -64 -19 -128 -41z"/>
<path d="M2056 724 c4 -14 12 -44 19 -67 l12 -42 92 -3 91 -3 0 71 0 70 -110
0 -110 0 6 -26z"/>
<path d="M3085 675 c-38 -14 -74 -26 -79 -28 -9 -3 94 -67 107 -67 4 0 57 105
57 115 0 8 -13 5 -85 -20z"/>
</g>
</svg>
