<?xml version="1.0" standalone="no"?>
<!DOCTYPE svg PUBLIC "-//W3C//DTD SVG 20010904//EN"
 "http://www.w3.org/TR/2001/REC-SVG-20010904/DTD/svg10.dtd">
<svg version="1.0" xmlns="http://www.w3.org/2000/svg"
 width="1120.000000pt" height="928.000000pt" viewBox="0 0 1120.000000 928.000000"
 preserveAspectRatio="xMidYMid meet">

<g transform="translate(0.000000,928.000000) scale(0.100000,-0.100000)"
fill="#000000" stroke="none">
<path d="M913 9205 c-449 -82 -783 -413 -890 -885 -16 -70 -17 -328 -21 -3600
-2 -2492 0 -3559 8 -3640 13 -140 39 -244 88 -359 149 -345 453 -583 832 -652
63 -12 832 -14 4675 -14 4384 0 4604 1 4688 18 220 45 414 147 565 297 160
160 261 344 314 575 l22 100 4 3465 c2 2262 -1 3521 -7 3625 -22 338 -122 568
-342 780 -143 138 -285 217 -499 278 l-75 22 -4645 2 c-3781 1 -4658 -1 -4717
-12z m9372 -164 c346 -71 624 -340 717 -691 l23 -85 0 -3625 0 -3625 -23 -85
c-24 -93 -83 -224 -132 -295 -31 -45 -32 -65 -4 -65 28 0 13 -15 -34 -34 -66
-28 -135 -96 -163 -161 -23 -52 -39 -70 -39 -42 -1 38 -17 37 -101 -7 -109
-57 -221 -92 -344 -106 -73 -8 -1332 -10 -4655 -8 l-4555 3 -85 23 c-107 29
-267 105 -347 166 -160 121 -291 321 -345 526 l-23 85 0 3635 0 3635 28 88
c94 300 294 521 567 626 166 64 -234 59 4820 60 4453 1 4608 0 4695 -18z"/>
<path d="M2249 6185 c-32 -18 -54 -66 -45 -101 4 -15 21 -40 37 -55 l31 -28
-3 -136 c-2 -74 -6 -140 -9 -145 -3 -5 -87 72 -186 173 l-179 182 78 3 c82 3
103 16 77 47 -11 13 -57 15 -294 15 -154 0 -287 -4 -294 -8 -10 -7 -12 -226
-10 -1062 l3 -1054 160 -123 c88 -68 272 -210 408 -316 244 -188 292 -216 292
-172 0 20 -125 120 -618 497 l-197 150 0 1014 0 1014 109 0 109 0 7 -302 c4
-167 5 -514 3 -773 l-3 -470 -30 -3 c-40 -5 -55 -19 -55 -51 0 -46 14 -51 146
-51 136 0 148 5 142 62 -3 30 -6 33 -40 36 l-38 3 0 560 c0 307 4 559 8 559 4
0 98 -91 208 -202 l200 -203 -1 -50 0 -50 -55 -2 c-108 -5 -140 -13 -177 -46
-64 -56 -63 -49 -63 -549 0 -436 1 -453 21 -494 33 -69 74 -88 196 -92 l103
-4 0 -39 c0 -38 -1 -39 -34 -39 -61 0 -66 -6 -66 -75 0 -72 17 -95 71 -95 29
0 42 -9 92 -64 39 -45 66 -66 85 -68 l27 -3 3 -197 c2 -176 4 -198 20 -205 9
-5 333 -7 720 -5 l703 3 -3 22 -3 22 -687 3 -688 2 0 179 0 179 43 -3 42 -3 5
-88 5 -89 84 -3 c64 -2 87 -7 96 -19 11 -15 14 -15 36 0 20 15 57 17 271 17
238 0 247 -1 253 -20 8 -24 54 -50 89 -50 14 0 39 12 55 28 66 60 28 162 -61
162 -31 0 -46 -7 -70 -30 l-30 -30 -195 2 -195 3 223 174 c123 95 288 221 365
280 l141 106 6 50 c3 28 6 498 7 1045 0 795 -2 999 -12 1013 -12 16 -37 17
-313 15 l-300 -3 -3 -27 -3 -27 76 -3 75 -3 -185 -185 -185 -185 0 150 0 151
30 26 c45 39 44 99 -1 141 -41 38 -91 37 -129 -3 -21 -23 -37 -30 -65 -30 -20
0 -45 -5 -56 -10 -18 -10 -19 -25 -19 -339 l0 -328 -25 -23 -25 -24 -30 29
-30 28 -2 326 -3 326 -50 5 c-39 4 -57 13 -82 38 -35 35 -70 41 -114 17z m86
-65 c10 -17 -5 -49 -26 -55 -26 -8 -49 11 -49 41 0 41 53 50 75 14z m509 14
c22 -22 20 -51 -5 -64 -41 -23 -80 20 -53 58 18 26 37 28 58 6z m-401 -149
c-1 -49 -2 -173 -2 -275 l-1 -184 -60 59 -60 59 0 178 0 178 38 39 c26 28 44
39 62 38 25 -2 25 -3 23 -92z m292 75 c4 -11 17 -28 31 -36 24 -16 24 -17 24
-198 l0 -182 -60 -59 -60 -59 0 277 0 277 29 0 c21 0 32 -6 36 -20z m905 -995
l0 -1014 -142 -108 c-79 -59 -255 -194 -391 -300 l-248 -193 -90 0 -89 0 0 66
c0 58 2 65 17 60 12 -5 35 13 82 64 53 56 72 70 95 70 17 0 40 10 53 22 19 18
23 32 23 79 l0 58 -52 3 -53 3 -3 43 -3 42 95 0 c134 0 179 22 217 105 17 37
19 73 19 470 0 237 -5 448 -10 469 -10 45 -34 81 -74 110 -22 17 -46 21 -131
24 l-105 4 0 57 0 58 103 98 c56 54 153 148 215 209 l112 111 0 -573 0 -572
-34 0 c-36 0 -46 -12 -46 -55 0 -36 28 -45 145 -45 117 0 145 9 145 45 0 44
-10 55 -51 55 l-39 0 0 775 0 775 120 0 120 0 0 -1015z m-1180 100 c0 -24 -2
-25 -70 -25 -68 0 -70 1 -70 25 0 24 2 25 70 25 68 0 70 -1 70 -25z m330 0 c0
-24 -3 -25 -60 -25 -57 0 -60 1 -60 25 0 24 3 25 60 25 57 0 60 -1 60 -25z
m-606 -167 c21 -30 20 -44 -4 -68 -26 -26 -46 -25 -75 4 -25 25 -25 44 -2 74
16 20 64 14 81 -10z m854 10 c21 -21 14 -66 -13 -84 -52 -34 -111 31 -70 76
20 22 65 26 83 8z m-298 -458 l0 -230 -170 0 -170 0 0 230 0 230 170 0 170 0
0 -230z m-410 190 c0 -18 -7 -20 -75 -20 -68 0 -75 2 -75 20 0 18 7 20 75 20
68 0 75 -2 75 -20z m627 5 c3 -9 4 -18 2 -20 -3 -2 -39 -7 -82 -11 l-77 -7 0
27 c0 26 1 26 75 26 59 0 77 -3 82 -15z m-627 -100 c0 -24 -2 -25 -75 -25 -66
0 -75 2 -75 18 0 29 8 32 82 32 66 0 68 -1 68 -25z m625 0 c0 -18 -8 -20 -77
-23 -78 -3 -78 -3 -78 23 0 26 0 26 78 23 69 -3 77 -5 77 -23z m-622 -89 c9
-22 -2 -26 -80 -26 -66 0 -73 2 -73 20 0 18 7 20 74 20 54 0 75 -4 79 -14z
m627 -6 c0 -18 -7 -20 -80 -20 -73 0 -80 2 -80 20 0 18 7 20 80 20 73 0 80 -2
80 -20z m-630 -95 c0 -24 -2 -25 -69 -25 -70 0 -88 8 -77 35 4 11 23 15 76 15
68 0 70 -1 70 -25z m625 0 c0 -18 -8 -20 -77 -23 -78 -3 -78 -3 -78 23 0 26 0
26 78 23 69 -3 77 -5 77 -23z m-622 -89 c9 -22 -2 -26 -80 -26 -66 0 -73 2
-73 20 0 18 7 20 74 20 54 0 75 -4 79 -14z m617 -6 c0 -18 -7 -20 -75 -20 -68
0 -75 2 -75 20 0 18 7 20 75 20 68 0 75 -2 75 -20z m-770 -190 c24 -24 25 -38
4 -68 -29 -42 -104 -17 -104 35 0 20 38 53 60 53 11 0 29 -9 40 -20z m859 -6
c19 -25 19 -45 -2 -71 -16 -21 -64 -15 -81 9 -21 30 -20 44 4 68 27 27 55 25
79 -6z m-259 -249 l0 -45 -212 2 -213 3 -3 43 -3 42 215 0 216 0 0 -45z m-90
-245 l0 -40 -125 0 -125 0 0 40 0 40 125 0 125 0 0 -40z m794 -232 c16 -26 -4
-53 -40 -53 -23 0 -30 5 -32 23 -7 47 47 69 72 30z"/>
<path d="M5183 5603 l-61 -4 -68 -172 c-36 -95 -72 -185 -78 -201 -11 -27 -15
-19 -91 172 l-80 202 -74 0 -74 0 6 -107 c4 -58 7 -193 7 -300 l0 -193 56 0
56 0 -7 183 c-3 100 -8 198 -11 217 -8 49 8 28 34 -45 12 -33 44 -112 71 -175
l50 -115 44 -3 44 -3 73 183 c40 101 73 184 74 185 1 1 0 -94 -2 -212 l-4
-215 56 0 56 0 0 305 c0 168 -3 304 -7 303 -5 -1 -36 -3 -70 -5z"/>
<path d="M5575 5595 c-59 -22 -106 -65 -140 -126 -25 -47 -30 -67 -33 -151 -7
-152 38 -247 142 -300 78 -41 258 -32 317 14 16 12 16 16 -1 55 l-19 42 -33
-17 c-23 -12 -57 -17 -110 -17 -89 0 -118 16 -152 81 -30 56 -30 204 0 254 45
78 131 105 227 72 l58 -19 20 39 c11 22 19 41 17 43 -47 40 -217 58 -293 30z"/>
<path d="M7074 5587 c-62 -30 -118 -94 -140 -159 -23 -71 -16 -237 13 -293 26
-51 67 -91 118 -118 58 -32 210 -31 278 0 l48 22 -16 38 c-9 20 -17 39 -19 41
-2 2 -25 -4 -50 -12 -161 -55 -266 22 -266 194 1 120 41 187 128 210 44 11
128 1 161 -19 11 -7 19 0 33 25 24 46 24 47 -19 69 -26 12 -67 20 -128 22 -79
4 -96 1 -141 -20z"/>
<path d="M4080 5299 l0 -301 168 4 c146 3 172 6 207 24 58 30 85 75 85 141 0
69 -23 110 -74 133 l-39 18 30 16 c62 32 78 141 30 202 -41 52 -86 64 -254 64
l-153 0 0 -301z m297 185 c20 -20 24 -31 19 -57 -9 -49 -38 -67 -112 -68 -35
-1 -69 -2 -76 -3 -12 -1 -24 115 -14 141 4 9 27 13 81 13 68 0 79 -3 102 -26z
m-15 -224 c42 -12 58 -34 58 -80 0 -68 -38 -90 -151 -90 l-69 0 0 90 0 90 63
0 c34 0 79 -5 99 -10z"/>
<path d="M5970 5403 c1 -215 8 -268 46 -325 66 -102 278 -119 375 -31 60 54
69 99 69 345 l0 208 -55 0 -55 0 0 -185 c0 -225 -9 -279 -53 -306 -37 -22
-109 -25 -147 -6 -52 26 -60 62 -60 290 l0 207 -60 0 -60 0 0 -197z"/>
<path d="M6580 5245 l0 -45 120 0 120 0 0 45 0 45 -120 0 -120 0 0 -45z"/>
<path d="M9380 4971 l0 -131 -987 -1 c-544 -1 -1738 -2 -2655 -2 l-1668 -2 0
-97 0 -98 2655 0 2655 0 0 -130 c0 -71 3 -130 6 -130 8 0 364 352 364 360 0 3
-83 86 -185 184 l-185 178 0 -131z"/>
<path d="M6030 4100 l0 -400 65 0 65 0 0 400 0 400 -65 0 -65 0 0 -400z"/>
<path d="M5270 4095 l0 -395 80 0 80 0 0 195 c0 193 0 196 20 185 15 -8 20
-21 20 -49 0 -36 10 -49 137 -185 l137 -146 78 0 78 0 0 33 c0 28 -21 54 -160
197 -87 91 -159 168 -160 173 0 4 72 78 160 164 144 140 160 159 160 189 l0
34 -74 0 -74 0 -140 -135 c-77 -74 -143 -135 -146 -135 -3 0 -6 11 -6 25 0 16
-6 25 -15 25 -12 0 -15 19 -15 110 l0 110 -80 0 -80 0 0 -395z"/>
<path d="M6340 4460 c-46 -46 -12 -122 54 -122 48 0 76 25 76 69 0 44 -30 73
-75 73 -22 0 -43 -8 -55 -20z"/>
<path d="M4107 4323 c-4 -3 -7 -34 -7 -68 l0 -62 -40 -7 c-40 -6 -40 -7 -40
-51 0 -43 0 -44 38 -47 l37 -3 5 -160 c3 -103 10 -168 18 -182 27 -48 106 -70
187 -53 59 12 62 17 44 69 -11 31 -14 32 -46 26 -24 -4 -42 -1 -59 10 -23 15
-24 18 -24 155 l0 140 60 0 60 0 0 50 0 50 -60 0 -60 0 0 70 0 70 -53 0 c-30
0 -57 -3 -60 -7z"/>
<path d="M8099 4257 c-116 -33 -189 -144 -189 -287 0 -127 64 -229 165 -263
62 -22 194 -22 263 -2 56 17 57 20 41 78 -9 33 -14 38 -32 33 -139 -41 -243
-19 -291 63 -34 59 -27 61 180 61 l187 0 -5 78 c-5 77 -28 141 -67 186 -46 52
-166 77 -252 53z m134 -108 c28 -13 48 -42 58 -86 l7 -33 -128 0 -128 0 11 36
c16 52 68 94 117 94 21 0 50 -5 63 -11z"/>
<path d="M6730 4253 c-14 -2 -42 -9 -63 -14 l-37 -10 2 -370 3 -371 63 -1 62
-2 0 114 c0 113 0 113 23 106 43 -14 153 -17 196 -5 59 16 123 81 146 150 20
62 23 165 6 227 -16 57 -68 123 -121 153 -39 21 -59 25 -150 26 -58 1 -116 0
-130 -3z m211 -126 c48 -32 69 -79 69 -157 0 -117 -49 -175 -148 -174 -102 0
-102 0 -102 183 0 87 3 161 7 164 3 4 36 7 73 7 53 0 74 -5 101 -23z"/>
<path d="M7366 4250 c-26 -5 -54 -11 -62 -14 -12 -4 -14 -68 -14 -376 l0 -370
65 0 65 0 0 111 c0 111 0 111 23 104 44 -14 165 -17 203 -5 20 7 56 32 80 55
52 52 74 118 74 221 0 120 -40 200 -128 251 -42 25 -57 28 -152 30 -58 1 -127
-2 -154 -7z m229 -119 c17 -9 40 -37 53 -61 20 -38 23 -56 19 -118 -5 -83 -22
-116 -78 -145 -36 -19 -91 -19 -141 2 l-28 11 0 164 0 165 33 4 c48 6 108 -3
142 -22z"/>
<path d="M8731 4240 c-52 -24 -51 -24 -51 -5 0 13 -11 15 -55 13 -30 -2 -55
-6 -55 -10 0 -5 0 -127 0 -273 l0 -265 66 0 66 0 -3 205 c-4 195 -3 205 16
219 30 23 82 30 131 19 l43 -10 15 51 c8 28 12 54 7 59 -4 4 -36 10 -72 13
-51 4 -73 1 -108 -16z"/>
<path d="M6337 4243 c-4 -3 -7 -127 -7 -275 l0 -268 65 0 65 0 0 275 0 275
-58 0 c-32 0 -62 -3 -65 -7z"/>
<path d="M4578 4186 c-75 -27 -123 -76 -147 -145 -16 -50 -14 -175 4 -219 40
-94 136 -149 249 -140 140 12 226 108 226 253 0 156 -85 253 -228 262 -42 2
-81 -2 -104 -11z m156 -115 c32 -28 46 -68 46 -131 0 -76 -20 -124 -59 -144
-61 -32 -132 -9 -157 49 -19 45 -18 149 1 190 30 61 118 81 169 36z"/>
<path d="M8063 3403 c-8 -3 -13 -23 -13 -52 l0 -47 -39 4 c-48 5 -76 -10 -97
-50 -21 -40 -13 -102 17 -134 20 -21 30 -24 96 -22 l73 1 0 154 c0 156 -1 161
-37 146z m-22 -133 c5 0 9 -27 9 -60 0 -49 -3 -61 -20 -70 -35 -19 -80 20 -80
70 0 27 46 74 66 66 9 -3 20 -6 25 -6z"/>
<path d="M6616 3391 c-11 -18 6 -41 30 -41 19 0 24 5 24 25 0 20 -5 25 -24 25
-14 0 -27 -4 -30 -9z"/>
<path d="M4080 3240 l0 -140 25 0 c24 0 24 1 27 98 l3 97 35 -83 c43 -105 59
-107 101 -7 17 39 33 73 37 77 4 4 5 -35 4 -87 l-4 -95 26 0 26 0 0 141 0 140
-31 -3 c-29 -3 -33 -9 -67 -90 -19 -48 -38 -85 -42 -83 -4 2 -22 43 -40 90
-32 83 -34 85 -66 85 l-34 0 0 -140z"/>
<path d="M4440 3240 l0 -140 26 0 27 0 -6 98 -6 97 39 -82 c25 -53 45 -83 55
-83 10 0 26 22 41 58 56 128 53 127 47 15 l-6 -103 26 0 27 0 0 141 0 140 -31
-3 c-29 -3 -34 -9 -66 -91 -20 -49 -39 -85 -43 -80 -4 4 -22 45 -40 91 -30 76
-34 82 -61 82 l-29 0 0 -140z"/>
<path d="M4790 3270 c0 -85 4 -116 16 -135 38 -58 165 -51 193 12 6 13 11 71
11 128 l0 105 -25 0 -25 0 0 -104 c0 -116 -9 -136 -60 -136 -51 0 -60 20 -60
136 l0 104 -25 0 -25 0 0 -110z"/>
<path d="M5555 3367 c-30 -23 -10 -37 44 -30 43 5 50 3 61 -16 15 -29 -2 -51
-41 -51 -46 0 -39 -34 9 -46 40 -10 55 -42 32 -70 -14 -16 -63 -19 -90 -4 -20
11 -47 -11 -35 -29 12 -21 83 -32 125 -21 68 18 91 106 35 132 l-22 10 23 24
c31 30 30 59 -1 89 -19 20 -34 25 -73 25 -26 0 -56 -6 -67 -13z"/>
<path d="M5790 3240 l0 -140 65 0 c120 0 169 43 168 146 -1 94 -50 134 -168
134 l-65 0 0 -140z m155 75 c20 -19 25 -34 25 -73 0 -67 -21 -92 -83 -99 l-47
-6 0 102 0 101 40 0 c30 0 47 -7 65 -25z"/>
<path d="M6190 3240 l0 -140 25 0 c23 0 25 3 25 49 l0 48 58 6 c65 7 102 38
102 87 0 67 -35 90 -140 90 l-70 0 0 -140z m145 80 c34 -38 -13 -89 -72 -78
-14 2 -19 14 -21 51 l-3 47 39 0 c26 0 45 -7 57 -20z"/>
<path d="M7677 3258 c-25 -68 -48 -131 -52 -141 -7 -16 -3 -18 21 -15 22 2 30
10 38 36 9 31 11 32 63 32 52 0 54 -1 69 -35 11 -27 20 -35 39 -35 14 0 25 3
25 8 0 4 -22 66 -49 137 -47 124 -50 130 -79 133 -29 3 -30 2 -75 -120z m92
21 c7 -23 15 -47 18 -55 4 -11 -5 -14 -37 -14 -32 0 -41 3 -37 14 3 8 11 32
18 55 7 23 15 41 19 41 4 0 12 -18 19 -41z"/>
<path d="M7000 3341 c0 -24 -4 -31 -20 -31 -13 0 -20 -7 -20 -19 0 -10 9 -21
20 -24 18 -4 20 -14 20 -74 0 -80 9 -93 63 -93 31 0 38 3 35 17 -2 9 -14 20
-28 23 -23 5 -25 10 -25 65 0 55 2 60 23 63 28 4 31 42 3 42 -14 0 -21 8 -23
28 -2 19 -9 28 -25 30 -20 3 -23 -1 -23 -27z"/>
<path d="M8673 3363 c-7 -2 -13 -15 -13 -28 0 -14 -7 -25 -20 -28 -11 -3 -20
-12 -20 -21 0 -9 8 -16 20 -16 18 0 20 -7 20 -73 0 -84 8 -97 62 -97 31 0 38
4 38 20 0 15 -7 20 -25 20 -29 0 -38 25 -33 86 3 34 6 39 31 42 36 4 39 42 3
42 -19 0 -25 6 -28 27 -3 27 -14 35 -35 26z"/>
<path d="M5260 3290 l0 -40 -40 0 c-33 0 -40 -3 -40 -19 0 -16 8 -20 38 -23
35 -3 37 -5 40 -40 4 -42 31 -54 33 -15 1 12 2 29 3 37 1 10 14 16 39 18 29 3
37 7 37 23 0 15 -7 19 -35 19 -30 0 -35 3 -35 24 0 35 -10 56 -26 56 -10 0
-14 -12 -14 -40z"/>
<path d="M6450 3205 l0 -105 25 0 c24 0 25 2 25 73 0 80 9 97 52 97 21 0 28 5
28 20 0 15 -7 20 -28 20 -15 0 -33 -5 -39 -11 -8 -8 -13 -8 -17 0 -4 6 -16 11
-27 11 -18 0 -19 -8 -19 -105z"/>
<path d="M6620 3205 l0 -105 25 0 25 0 0 105 0 105 -25 0 -25 0 0 -105z"/>
<path d="M6740 3205 c0 -102 1 -105 23 -105 21 0 22 4 22 76 0 85 11 102 58
90 26 -6 27 -8 27 -86 0 -79 0 -80 25 -80 25 0 25 1 25 83 0 101 -14 127 -66
127 -20 0 -44 -5 -55 -10 -13 -7 -19 -7 -19 0 0 5 -9 10 -20 10 -19 0 -20 -7
-20 -105z"/>
<path d="M7169 3297 c-47 -36 -53 -119 -13 -167 25 -29 30 -31 88 -28 50 2 61
6 64 22 3 16 -1 17 -35 12 -43 -7 -86 10 -91 37 -3 15 6 17 67 17 l71 0 0 35
c0 52 -36 85 -92 85 -24 0 -50 -6 -59 -13z m91 -37 c28 -28 17 -40 -36 -40
-50 0 -59 18 -22 44 29 21 34 20 58 -4z"/>
<path d="M7379 3306 c-2 -2 -3 -50 -1 -105 3 -99 4 -101 27 -101 23 0 23 1 18
73 -6 81 0 93 52 99 19 2 31 9 33 21 3 13 -4 17 -30 17 -19 0 -39 -5 -46 -12
-9 -9 -12 -9 -12 0 0 11 -31 17 -41 8z"/>
<path d="M8181 3301 c-8 -5 -11 -16 -8 -24 5 -13 12 -14 38 -7 20 6 38 6 50
-1 31 -16 22 -36 -20 -43 -22 -3 -52 -17 -67 -29 -23 -21 -26 -27 -17 -53 13
-39 54 -59 93 -45 16 5 45 7 65 4 28 -4 35 -2 35 10 0 9 -4 19 -10 22 -5 3
-10 34 -10 68 0 87 -16 107 -83 107 -29 0 -58 -4 -66 -9z m99 -124 c0 -44 -44
-63 -71 -31 -11 14 -10 19 10 35 33 27 61 25 61 -4z"/>
<path d="M8400 3159 l0 -149 25 0 c23 0 25 3 25 50 0 48 1 49 24 40 75 -28
145 58 116 144 -17 52 -44 66 -123 65 l-67 -1 0 -149z m135 88 c34 -48 5 -107
-51 -107 l-34 0 0 64 c0 53 3 65 18 68 27 6 51 -3 67 -25z"/>
<path d="M8829 3297 c-26 -20 -39 -53 -39 -97 0 -60 41 -100 103 -100 55 0 77
8 77 26 0 10 -13 13 -49 12 -50 -2 -81 12 -81 38 0 11 17 14 70 14 l70 0 0 35
c0 52 -36 85 -92 85 -24 0 -50 -6 -59 -13z m91 -32 c21 -26 4 -45 -40 -45 -44
0 -53 16 -24 44 20 20 48 20 64 1z"/>
<path d="M9040 3204 l0 -104 26 0 c25 0 25 1 23 73 -3 84 2 97 41 97 23 0 40
15 40 35 0 3 -29 4 -65 3 l-65 -1 0 -103z"/>
</g>
</svg>
